HIERARCHY
ROOT Hips
{
    OFFSET 0.000000 0.000000 0.000000
    CHANNELS 6 Xposition Yposition Zposition Zrotation Xrotation Yrotation
    JOINT Spine
    {
        OFFSET -0.000000 7.246840 0.000000
        CHANNELS 3 Zrotation Xrotation Yrotation
        JOINT Spine1
        {
            OFFSET -0.000000 20.289354 0.000000
            CHANNELS 3 Zrotation Xrotation Yrotation
            JOINT Neck
            {
                OFFSET -0.000000 20.206032 1.836912
                CHANNELS 3 Zrotation Xrotation Yrotation
                JOINT Head
                {
                    OFFSET -0.000000 12.372654 -1.767522
                    CHANNELS 3 Zrotation Xrotation Yrotation
                    End Site
                    {
                        OFFSET -0.000000 22.094025 0.000000
                    }
                }
            }
            JOINT LeftShoulder
            {
                OFFSET 3.465871 17.201674 -0.568930
                CHANNELS 3 Zrotation Xrotation Yrotation
                JOINT LeftArm
                {
                    OFFSET 14.070313 0.000000 0.000000
                    CHANNELS 3 Zrotation Xrotation Yrotation
                    JOINT LeftForeArm
                    {
                        OFFSET 26.549477 0.000000 0.000000
                        CHANNELS 3 Zrotation Xrotation Yrotation
                        JOINT LeftHand
                        {
                            OFFSET 18.880413 0.000000 0.000000
                            CHANNELS 3 Zrotation Xrotation Yrotation
                            End Site
                            {
                                OFFSET 13.256415 0.000000 0.000000
                            }
                        }
                    }
                }
            }
            JOINT RightShoulder
            {
                OFFSET -3.526370 17.201674 -0.568930
                CHANNELS 3 Zrotation Xrotation Yrotation
                JOINT RightArm
                {
                    OFFSET -14.070313 0.000000 0.000000
                    CHANNELS 3 Zrotation Xrotation Yrotation
                    JOINT RightForeArm
                    {
                        OFFSET -26.549477 0.000000 0.000000
                        CHANNELS 3 Zrotation Xrotation Yrotation
                        JOINT RightHand
                        {
                            OFFSET -18.880413 0.000000 0.000000
                            CHANNELS 3 Zrotation Xrotation Yrotation
                            End Site
                            {
                                OFFSET -13.256415 0.000000 0.000000
                            }
                        }
                    }
                }
            }
        }
    }
    JOINT LeftUpLeg
    {
        OFFSET 8.837609 0.000000 0.000000
        CHANNELS 3 Zrotation Xrotation Yrotation
        JOINT LeftLeg
        {
            OFFSET -0.000000 -41.345005 0.000000
            CHANNELS 3 Zrotation Xrotation Yrotation
            JOINT LeftFoot
            {
                OFFSET -0.000000 -35.500874 0.000000
                CHANNELS 3 Zrotation Xrotation Yrotation
                JOINT LeftToeBase
                {
                    OFFSET -0.000000 -5.744446 13.256415
                    CHANNELS 3 Zrotation Xrotation Yrotation
                    End Site
                    {
                        OFFSET -0.000000 0.000000 3.535044
                    }
                }
            }
        }
    }
    JOINT RightUpLeg
    {
        OFFSET -8.837609 0.000000 0.000000
        CHANNELS 3 Zrotation Xrotation Yrotation
        JOINT RightLeg
        {
            OFFSET -0.000000 -41.345005 0.000000
            CHANNELS 3 Zrotation Xrotation Yrotation
            JOINT RightFoot
            {
                OFFSET -0.000000 -35.500874 0.000000
                CHANNELS 3 Zrotation Xrotation Yrotation
                JOINT RightToeBase
                {
                    OFFSET -0.000000 -5.744446 13.256415
                    CHANNELS 3 Zrotation Xrotation Yrotation
                    End Site
                    {
                        OFFSET -0.000000 0.000000 3.535044
                    }
                }
            }
        }
    }
}
MOTION
Frames:    4
Frame Time:    0.010000
14.415866    82.385948    14.476593    2.116007    2.566982    -7.430853    -6.015974    -15.743219    -1.833351    1.792591    6.779998    -1.107036    2.605859    21.998457    -8.528150    5.149194    -2.005172    -7.914334    8.262463    5.786010    10.710072    -89.292725    46.034164    1.763137    2.110110    -25.692181    -30.839985    -60.802170    -19.713415    -10.026198    -8.597936    3.192437    8.212225    53.402153    50.356617    8.494582    -6.784203    -27.742943    72.186424    67.318649    -13.761369    14.962025    -2.834272    8.558471    2.982765    -1.682437    -9.106626    -5.459246    3.505202    -0.538296    2.955882    0.169998    0.269800    -0.237602    -8.416697    4.558146    3.947161    7.388401    -6.677788    4.473747    1.274235    -1.621030    -6.903042    -0.504784    -2.491652    0.930543    
14.449577    82.385292    14.484680    2.101321    2.595037    -7.414587    -5.986730    -15.668944    -1.889567    1.745928    6.446946    -1.163437    2.736399    21.932785    -8.323905    5.011509    -0.863014    -7.767151    8.266286    5.837916    10.676263    -89.438072    45.933472    1.981845    2.162015    -25.701439    -30.769527    -60.955666    -19.727898    -9.965302    -8.704473    2.914954    8.351948    52.184307    49.294968    8.666046    -6.619542    -28.248444    74.005974    68.277733    -13.882395    15.279688    -2.855009    8.540229    3.173095    -1.652680    -9.126229    -5.732614    3.479938    -0.534028    3.022620    0.173323    0.275349    -0.242241    -8.421824    4.542751    3.934376    7.382009    -6.686425    4.446827    1.305650    -1.621448    -6.883793    -0.496342    -2.500415    0.915073    
14.483155    82.386017    14.492144    2.086666    2.624987    -7.400662    -5.938854    -15.661579    -1.933629    1.685121    6.234287    -1.207884    2.914281    21.884447    -8.134185    4.790442    0.097826    -7.633775    8.271575    5.871310    10.652547    -89.517853    45.821587    2.110868    2.207828    -25.668638    -30.694790    -61.113625    -19.706715    -9.892341    -8.801547    2.609646    8.495240    50.963161    48.175179    8.857225    -6.233720    -28.586954    76.002419    68.398384    -14.357038    15.266527    -2.848157    8.532701    3.106061    -1.669609    -9.160048    -5.708708    3.514641    -0.522997    3.035685    0.171724    0.301748    -0.239969    -8.431115    4.525014    3.939386    7.389138    -6.701170    4.399299    1.345829    -1.617872    -6.857012    -0.489408    -2.498020    0.902265    
14.499742    82.368759    14.475610    2.184953    2.737362    -7.465195    -6.068523    -15.734647    -1.959832    1.722562    6.013808    -1.210976    3.191135    21.941010    -8.012302    4.443850    0.811351    -7.566267    8.283704    5.903478    10.621204    -89.600800    45.751945    2.212504    2.258149    -25.665806    -30.614782    -61.227886    -19.721355    -9.818412    -8.889755    2.340920    8.631490    49.749226    47.053001    9.102885    -6.370851    -29.053865    77.645088    69.076546    -14.193454    15.705337    -2.936452    8.400165    3.211854    -1.732689    -9.148965    -5.631577    3.567637    -0.537904    2.890176    0.184876    0.304122    -0.258344    -8.530483    4.359701    3.979653    7.389476    -6.670485    4.437404    1.367238    -1.603813    -6.898983    -0.506927    -2.511569    0.934706    
